<?xml version="1.0" standalone="no"?>
<!DOCTYPE svg PUBLIC "-//W3C//DTD SVG 20010904//EN"
 "http://www.w3.org/TR/2001/REC-SVG-20010904/DTD/svg10.dtd">
<svg version="1.0" xmlns="http://www.w3.org/2000/svg"
 width="256.000000pt" height="256.000000pt" viewBox="0 0 256.000000 256.000000"
 preserveAspectRatio="xMidYMid meet">

<g transform="translate(0.000000,256.000000) scale(0.100000,-0.100000)"
fill="#000000" stroke="none">
<path d="M1065 1820 c-115 -231 -213 -419 -216 -418 -3 2 -68 63 -144 135 -76
73 -142 130 -148 126 -6 -3 -7 -2 -4 4 6 10 -39 61 -47 52 -5 -5 -134 -1283
-130 -1287 1 -2 150 87 330 197 179 111 329 201 333 201 3 -1 57 -86 120 -190
63 -105 117 -190 120 -190 3 0 55 84 115 185 60 102 111 187 115 189 3 2 155
-83 336 -190 182 -106 331 -189 333 -184 4 11 -129 1282 -135 1289 -2 3 -77
-68 -167 -157 -90 -89 -168 -162 -173 -162 -6 0 -103 185 -217 410 -114 226
-208 410 -209 410 -1 0 -97 -189 -212 -420z m423 -15 l202 -403 -211 -206
-212 -205 -203 196 c-112 108 -204 197 -204 199 0 11 412 824 418 823 4 0 98
-182 210 -404z m552 -122 c1 -10 29 -278 63 -595 35 -318 59 -578 55 -578 -4
0 -93 171 -198 379 l-189 380 127 215 c70 118 130 215 135 215 4 1 7 -7 7 -16z
m-1378 -227 l121 -200 -192 -384 c-106 -211 -194 -382 -197 -380 -2 3 23 269
56 591 33 323 60 592 60 599 1 20 21 -11 152 -226z m1335 217 c-49 -91 -230
-382 -236 -379 -4 3 -18 28 -31 56 l-24 51 145 139 c140 135 155 148 146 133z
m-1287 -158 l134 -134 -24 -51 c-13 -27 -27 -50 -30 -50 -4 0 -51 73 -105 163
-55 89 -105 172 -113 185 -32 49 10 16 138 -113z m1015 -185 c14 -27 25 -55
25 -62 0 -12 -239 -418 -247 -418 -3 0 -213 120 -223 128 -6 4 401 401 412
402 4 0 19 -22 33 -50z m-546 -274 c41 -41 73 -77 70 -79 -15 -11 -191 -118
-199 -120 -8 -2 -250 385 -250 400 0 3 12 30 26 60 l25 54 127 -120 c70 -66
161 -153 201 -195z m976 -584 c-5 -5 -634 362 -635 370 0 6 143 249 213 361
l30 48 198 -388 c109 -213 196 -389 194 -391z m-1245 576 c63 -105 115 -195
115 -199 0 -10 -616 -392 -621 -386 -5 5 379 777 386 777 3 0 57 -87 120 -192z
m475 -144 l114 -66 -27 -47 c-15 -25 -62 -104 -104 -176 -43 -71 -80 -134 -82
-140 -2 -5 -6 -8 -9 -5 -18 18 -228 375 -221 377 5 2 52 30 104 62 52 33 99
60 103 60 4 1 59 -29 122 -65z"/>
</g>
</svg>
